# xmcd CD database file
#
# Track frame offsets:
#	150
#	32030
#	59957
#	88492
#	112757
#	148472
#	173407
#	204347
#	227690
#	263412
#
# Disc length: 4011 seconds
#
# Revision: 0
# Processed by: cddbd v1.5.1PL0 Copyright (c) Steve Scherf et al.
# Submitted via: CDex 1.51
#
DISCID=8a0fa90a
DTITLE=Brian Melvin Trio - Standard Zone
DYEAR=1986
DGENRE=Jazz
TTITLE0=Morning Star
TTITLE1=Days of Wine And Roses
TTITLE2=Wedding Waltz
TTITLE3=Moon And Sand
TTITLE4=So What
TTITLE5=Fire Water
TTITLE6=If You Could See Me Now
TTITLE7=Out Of The Night
TTITLE8=Tokyo Blues
TTITLE9=Village Blues
EXTD=YEAR: 1986
EXTT0=
EXTT1=
EXTT2=
EXTT3=
EXTT4=
EXTT5=
EXTT6=
EXTT7=
EXTT8=
EXTT9=
PLAYORDER=
